<svg xmlns="http://www.w3.org/2000/svg" viewBox="0 0 266.16 34.61"><defs><style>.cls-1{fill:#333;}</style></defs><title>logo-singleline-black_1</title><g id="Layer_2" data-name="Layer 2"><g id="Layer_1-2" data-name="Layer 1"><path class="cls-1" d="M4.87,11.42c0-.65,0-1.29-.07-1.91a8.72,8.72,0,0,0-.29-1.73,3.76,3.76,0,0,0-.69-1.37,2.4,2.4,0,0,0-1.26-.8q-.49-.13-1-.22c-.35-.06-.69-.1-1-.13A.43.43,0,0,1,.13,5a1,1,0,0,1,0-1,.43.43,0,0,1,.4-.22q1.51,0,2.7.09T6,4Q7.84,4,9.61,4l3.59-.11A19,19,0,0,1,19.91,5,15.82,15.82,0,0,1,25.2,8.21a14.81,14.81,0,0,1,3.48,4.92,15.23,15.23,0,0,1,1.26,6.22,16.11,16.11,0,0,1-1.19,6.47,12.89,12.89,0,0,1-3.28,4.59,13.31,13.31,0,0,1-4.94,2.72,20.75,20.75,0,0,1-6.18.88q-2,0-3.88-.18t-3.39-.18l-1.68,0-1.46.07q-.71,0-1.44.13l-1.62.18a.4.4,0,0,1-.42-.18,1.18,1.18,0,0,1-.2-.49.78.78,0,0,1,.11-.53.64.64,0,0,1,.51-.31,10,10,0,0,0,1.82-.37,3.33,3.33,0,0,0,1.24-.69,2.55,2.55,0,0,0,.71-1.15,6.4,6.4,0,0,0,.22-1.86Zm4.83,14a24.41,24.41,0,0,0,.2,3.52,3.85,3.85,0,0,0,.78,2,2.77,2.77,0,0,0,1.66.86,16.71,16.71,0,0,0,2.9.2,8,8,0,0,0,3.66-.84,8.09,8.09,0,0,0,2.86-2.46,12.2,12.2,0,0,0,1.86-4,19.87,19.87,0,0,0,.67-5.4,22.39,22.39,0,0,0-.67-5.74,10.2,10.2,0,0,0-2.17-4.21,9.23,9.23,0,0,0-4-2.57,18.93,18.93,0,0,0-6.14-.87,1.91,1.91,0,0,0-1.24.31,1.56,1.56,0,0,0-.36,1.2Z"/><path class="cls-1" d="M37.25,22.45c-.15,0-.23.05-.24.16A2.5,2.5,0,0,0,37,23a12.9,12.9,0,0,0,.51,3.9,6.88,6.88,0,0,0,1.42,2.59,5.23,5.23,0,0,0,2.17,1.44,8.16,8.16,0,0,0,2.72.44,17.25,17.25,0,0,0,2.92-.24A5.11,5.11,0,0,0,49.16,30a.56.56,0,0,1,.47-.13.67.67,0,0,1,.4.22.86.86,0,0,1,.2.4.48.48,0,0,1-.09.4,7.61,7.61,0,0,1-3.19,2.57,11.91,11.91,0,0,1-4.39.71,12,12,0,0,1-4.59-.8,8.47,8.47,0,0,1-3.19-2.24,9.14,9.14,0,0,1-1.86-3.37,14,14,0,0,1-.6-4.19,11.65,11.65,0,0,1,.73-4.12,9.88,9.88,0,0,1,5.21-5.63,9.48,9.48,0,0,1,4-.84,8.66,8.66,0,0,1,3.39.64,7.47,7.47,0,0,1,2.59,1.77,8.1,8.1,0,0,1,1.66,2.7,9.46,9.46,0,0,1,.6,3.39q0,.93-.67.93Zm8.11-1.55q.62,0,.71-.44a5.44,5.44,0,0,0,.09-1.06,5.66,5.66,0,0,0-.29-1.79A4.93,4.93,0,0,0,45,16.07,4.05,4.05,0,0,0,43.76,15a3.64,3.64,0,0,0-1.73-.4A4.66,4.66,0,0,0,40,15a4.57,4.57,0,0,0-1.46,1.11,4.7,4.7,0,0,0-.91,1.62,10.5,10.5,0,0,0-.44,1.95,3.81,3.81,0,0,0-.07.87c0,.22.08.33.2.33Z"/><path class="cls-1" d="M57.38,22.89a12.64,12.64,0,0,0,.4,3.21A8.31,8.31,0,0,0,59,28.81a5.94,5.94,0,0,0,2.1,1.86,6.49,6.49,0,0,0,3.1.69,18.73,18.73,0,0,0,3-.24A4.94,4.94,0,0,0,69.74,30a.38.38,0,0,1,.4-.11,1.07,1.07,0,0,1,.4.22.82.82,0,0,1,.24.38.43.43,0,0,1-.07.4A7.32,7.32,0,0,1,67.3,33.5a13.88,13.88,0,0,1-4.61.69,12.31,12.31,0,0,1-3.54-.53,8.7,8.7,0,0,1-3.21-1.77,8.89,8.89,0,0,1-2.33-3.3,13,13,0,0,1-.89-5.12,11.43,11.43,0,0,1,.73-4.1,9.28,9.28,0,0,1,2.13-3.32A10.12,10.12,0,0,1,59,13.84a12.51,12.51,0,0,1,4.7-.82,10.18,10.18,0,0,1,2.5.31,7.61,7.61,0,0,1,2.17.91,4.9,4.9,0,0,1,1.53,1.49,3.59,3.59,0,0,1,.57,2A2.46,2.46,0,0,1,70,19.22a2,2,0,0,1-1.68.71,2.35,2.35,0,0,1-1.53-.49,1.72,1.72,0,0,1-.6-1.42,1.54,1.54,0,0,1,.33-1,1.2,1.2,0,0,0,.33-.75q0-.79-1.06-1.22a6.32,6.32,0,0,0-2.35-.42,5.2,5.2,0,0,0-2.81.71,5.86,5.86,0,0,0-1.86,1.88,8.12,8.12,0,0,0-1,2.66A14.79,14.79,0,0,0,57.38,22.89Z"/><path class="cls-1" d="M76.15,22.45c-.15,0-.23.05-.24.16a2.5,2.5,0,0,0,0,.38,12.9,12.9,0,0,0,.51,3.9,6.88,6.88,0,0,0,1.42,2.59A5.23,5.23,0,0,0,80,30.91a8.16,8.16,0,0,0,2.72.44,17.25,17.25,0,0,0,2.92-.24A5.11,5.11,0,0,0,88.07,30a.56.56,0,0,1,.47-.13.67.67,0,0,1,.4.22.86.86,0,0,1,.2.4.48.48,0,0,1-.09.4,7.61,7.61,0,0,1-3.19,2.57,13.74,13.74,0,0,1-9-.09,8.47,8.47,0,0,1-3.19-2.24,9.14,9.14,0,0,1-1.86-3.37,14,14,0,0,1-.6-4.19A11.65,11.65,0,0,1,72,19.48a9.88,9.88,0,0,1,5.21-5.63,9.48,9.48,0,0,1,4-.84,8.66,8.66,0,0,1,3.39.64,7.47,7.47,0,0,1,2.59,1.77,8.1,8.1,0,0,1,1.66,2.7,9.46,9.46,0,0,1,.6,3.39q0,.93-.67.93Zm8.11-1.55q.62,0,.71-.44a5.44,5.44,0,0,0,.09-1.06,5.66,5.66,0,0,0-.29-1.79,4.93,4.93,0,0,0-.82-1.53A4.05,4.05,0,0,0,82.66,15a3.64,3.64,0,0,0-1.73-.4,4.66,4.66,0,0,0-2.06.42,4.57,4.57,0,0,0-1.46,1.11,4.7,4.7,0,0,0-.91,1.62,10.5,10.5,0,0,0-.44,1.95,3.81,3.81,0,0,0-.07.87c0,.22.08.33.2.33Z"/><path class="cls-1" d="M97.1,28.39c0,.74,0,1.36,0,1.86a3.89,3.89,0,0,0,.24,1.24,1.5,1.5,0,0,0,.67.75,3.91,3.91,0,0,0,1.31.4.56.56,0,0,1,.4.24.82.82,0,0,1,.13.47.74.74,0,0,1-.13.42.45.45,0,0,1-.4.2,16.18,16.18,0,0,1-1.66-.16,20.29,20.29,0,0,0-2.55-.16,23.86,23.86,0,0,0-2.75.16,21.6,21.6,0,0,1-2.48.16.4.4,0,0,1-.35-.2.73.73,0,0,1-.13-.42.81.81,0,0,1,.13-.47.56.56,0,0,1,.4-.24,7.93,7.93,0,0,0,1.71-.36,1.72,1.72,0,0,0,.88-.67,2.35,2.35,0,0,0,.33-1.15q0-.71,0-1.82V23.07q0-2.17,0-3.61a8.8,8.8,0,0,0-.31-2.28A2,2,0,0,0,91.75,16a3.31,3.31,0,0,0-1.64-.33.53.53,0,0,1-.42-.18.58.58,0,0,1-.16-.4.64.64,0,0,1,.16-.44.53.53,0,0,1,.42-.18,16.54,16.54,0,0,0,2.46-.26,28.14,28.14,0,0,0,3.3-.75.78.78,0,0,1,.93.24,1.56,1.56,0,0,1,.31,1v1.77a.1.1,0,0,0,.07.11s.08,0,.11-.07a7.94,7.94,0,0,1,3.94-3.1,6.31,6.31,0,0,1,2.17-.36,7.14,7.14,0,0,1,5.21,1.84q1.88,1.84,1.88,6v7.57c0,.8,0,1.45.07,2a3.27,3.27,0,0,0,.31,1.22,1.6,1.6,0,0,0,.75.71,5.18,5.18,0,0,0,1.44.38.56.56,0,0,1,.4.24.82.82,0,0,1,.13.47.74.74,0,0,1-.13.42.45.45,0,0,1-.4.2,18.34,18.34,0,0,1-1.88-.16,22.46,22.46,0,0,0-2.64-.16,22.69,22.69,0,0,0-2.7.16,18.52,18.52,0,0,1-2.13.16.4.4,0,0,1-.35-.2.74.74,0,0,1-.13-.42.82.82,0,0,1,.13-.47.56.56,0,0,1,.4-.24,4.69,4.69,0,0,0,1.48-.4,1.72,1.72,0,0,0,.75-.73,2.89,2.89,0,0,0,.29-1.15q0-.69,0-1.71V21.92q0-1.11-.09-2.22a6,6,0,0,0-.49-2,3.78,3.78,0,0,0-1.15-1.46,3.37,3.37,0,0,0-2.08-.57,6,6,0,0,0-2.33.42,5,5,0,0,0-1.68,1.13,4.71,4.71,0,0,0-1,1.66,5.73,5.73,0,0,0-.36,2Z"/><path class="cls-1" d="M118.26,26.92a9.2,9.2,0,0,0,.55,3.68,2,2,0,0,0,2,1.2,6,6,0,0,0,1.93-.31,5.37,5.37,0,0,0,1.4-.67.32.32,0,0,1,.31,0,.73.73,0,0,1,.31.22,1.09,1.09,0,0,1,.2.33.33.33,0,0,1,0,.31,4.71,4.71,0,0,1-2.19,1.95,8,8,0,0,1-3.17.58q-3,0-4.25-1.35a6.11,6.11,0,0,1-1.24-4.23V17.22a6.37,6.37,0,0,0,0-.84.59.59,0,0,0-.26-.44,1.67,1.67,0,0,0-.73-.16l-1.44,0q-.13,0-.22-.26a2.32,2.32,0,0,1-.11-.58,1.47,1.47,0,0,1,.07-.57c.06-.18.15-.27.26-.27a9,9,0,0,0,1.91-.33,3.33,3.33,0,0,0,1.35-.78,3.76,3.76,0,0,0,.88-1.44,12.51,12.51,0,0,0,.55-2.37.53.53,0,0,1,.36-.4,1.67,1.67,0,0,1,.67-.13,1.78,1.78,0,0,1,.64.11c.19.07.29.17.29.29v3.81a2.57,2.57,0,0,0,.07.82c0,.07.23.11.55.11h4.61a.4.4,0,0,1,.4.36,2.58,2.58,0,0,1,.09.62,2.4,2.4,0,0,1-.11.64.46.46,0,0,1-.47.38h-4.74c-.21,0-.33.05-.36.16a7.49,7.49,0,0,0,0,1.13Z"/><path class="cls-1" d="M147.73,3.43a13.18,13.18,0,0,1,3.68.49,21,21,0,0,1,3.32,1.28l.91.42a1.76,1.76,0,0,0,.73.2q.71,0,.93-.84a.4.4,0,0,1,.29-.27,1.11,1.11,0,0,1,.49-.07,1.21,1.21,0,0,1,.42.11.22.22,0,0,1,.13.26,9.66,9.66,0,0,0-.24,1.46c0,.5-.07,1-.07,1.55a17.42,17.42,0,0,0,.18,2.48q.18,1.24.35,2.57a.33.33,0,0,1-.2.29,1.18,1.18,0,0,1-.49.13,1.36,1.36,0,0,1-.55-.06.41.41,0,0,1-.31-.31,10.66,10.66,0,0,0-3.59-5.87,10,10,0,0,0-6.25-1.88,8.69,8.69,0,0,0-4.83,1.24,9.31,9.31,0,0,0-3,3.21A13.69,13.69,0,0,0,138,14.17a25.15,25.15,0,0,0-.44,4.63,23.58,23.58,0,0,0,.53,5,14.52,14.52,0,0,0,1.73,4.47A10,10,0,0,0,143,31.49a8.33,8.33,0,0,0,4.67,1.26,17.55,17.55,0,0,0,3.81-.38,6.24,6.24,0,0,0,2.84-1.4,9.62,9.62,0,0,0,2.26-3.08,15,15,0,0,0,1.2-4.05.45.45,0,0,1,.29-.4.85.85,0,0,1,.51,0,1.28,1.28,0,0,1,.49.25c.15.12.21.24.18.35q-.13.89-.18,1.75t0,1.75q0,1.51.11,3.08t.2,3.3a.47.47,0,0,1-.18.4.83.83,0,0,1-.42.16.87.87,0,0,1-.47-.09A.46.46,0,0,1,158,34a2.75,2.75,0,0,0-.31-.78,2,2,0,0,0-.58-.62,1.45,1.45,0,0,0-.84-.24,2.22,2.22,0,0,0-1,.31,19.72,19.72,0,0,1-1.88.91,12.22,12.22,0,0,1-1.84.6,13.48,13.48,0,0,1-2,.31q-1,.09-2.22.09-7.84,0-11.63-3.92t-3.79-11.23a18.43,18.43,0,0,1,1.2-6.89,14.23,14.23,0,0,1,3.3-5,13.77,13.77,0,0,1,5-3.08A18.55,18.55,0,0,1,147.73,3.43Z"/><path class="cls-1" d="M165.83,11.58c0-1.27,0-3.57-.09-4.33a4.26,4.26,0,0,0-.44-1.75,1.8,1.8,0,0,0-1.09-.84,11.23,11.23,0,0,0-2-.35.36.36,0,0,1-.33-.22,1.26,1.26,0,0,1-.13-.44.79.79,0,0,1,.09-.44A.39.39,0,0,1,162.2,3,13.29,13.29,0,0,0,165.94,2,21.21,21.21,0,0,0,168.85.14a.83.83,0,0,1,.9,0,.78.78,0,0,1,.24.51V28.72q0,1.11,0,1.86a2.72,2.72,0,0,0,.33,1.24,1.85,1.85,0,0,0,.93.75,6.93,6.93,0,0,0,1.79.4.57.57,0,0,1,.4.24.82.82,0,0,1,.13.47.74.74,0,0,1-.13.42.45.45,0,0,1-.4.2,21,21,0,0,1-2.39-.16A23,23,0,0,0,168,34a25,25,0,0,0-2.79.16,25,25,0,0,1-2.79.16.4.4,0,0,1-.35-.2.73.73,0,0,1-.13-.42.81.81,0,0,1,.13-.47.56.56,0,0,1,.4-.24,7.9,7.9,0,0,0,1.93-.4,2,2,0,0,0,1-.73,2.31,2.31,0,0,0,.35-1.15q0-.69,0-1.71Z"/><path class="cls-1" d="M210,11.58c0-1.27,0-3.57-.09-4.33a4.26,4.26,0,0,0-.44-1.75,1.8,1.8,0,0,0-1.09-.84,11.23,11.23,0,0,0-2-.35.36.36,0,0,1-.33-.22,1.26,1.26,0,0,1-.13-.44A.79.79,0,0,1,206,3.2.39.39,0,0,1,206.4,3,13.29,13.29,0,0,0,210.15,2,21.21,21.21,0,0,0,213.05.14a.83.83,0,0,1,.9,0,.78.78,0,0,1,.24.51V28.72q0,1.11,0,1.86a2.72,2.72,0,0,0,.33,1.24,1.85,1.85,0,0,0,.93.75,6.93,6.93,0,0,0,1.79.4.57.57,0,0,1,.4.24.82.82,0,0,1,.13.47.74.74,0,0,1-.13.42.45.45,0,0,1-.4.2,21,21,0,0,1-2.39-.16,23,23,0,0,0-2.66-.16,25,25,0,0,0-2.79.16,23.38,23.38,0,0,1-2.79.16.4.4,0,0,1-.35-.2.73.73,0,0,1-.13-.42.81.81,0,0,1,.13-.47.56.56,0,0,1,.4-.24,7.9,7.9,0,0,0,1.93-.4,1.89,1.89,0,0,0,1.16-1.26c.11-.69.17-1.29.19-1.75s0-1,0-1.71Z"/><path class="cls-1" d="M194.23,23.36a14,14,0,0,1-.75,4.78,9.53,9.53,0,0,1-2.15,3.5A9.09,9.09,0,0,1,188,33.79a12.25,12.25,0,0,1-4.34.73,10.57,10.57,0,0,1-3.85-.69,8.29,8.29,0,0,1-3.06-2,9.68,9.68,0,0,1-2-3.41,14.1,14.1,0,0,1-.75-4.85,11,11,0,0,1,.75-4.14,9.26,9.26,0,0,1,2.1-3.21,9.66,9.66,0,0,1,3.26-2.08,11.26,11.26,0,0,1,4.17-.75,11.71,11.71,0,0,1,4,.67,9,9,0,0,1,3.17,1.93,8.81,8.81,0,0,1,2.08,3.12A11.41,11.41,0,0,1,194.23,23.36Zm-4.65.49a23.79,23.79,0,0,0-.22-3.28,10,10,0,0,0-.8-2.84,5.09,5.09,0,0,0-1.6-2,4.28,4.28,0,0,0-2.61-.75,5,5,0,0,0-2.88.75,5.26,5.26,0,0,0-1.75,2,9.31,9.31,0,0,0-.88,2.86,21.77,21.77,0,0,0-.25,3.32,22.49,22.49,0,0,0,.22,3.1,9.66,9.66,0,0,0,.84,2.88A5.9,5.9,0,0,0,181.36,32a4.39,4.39,0,0,0,2.77.84,4.54,4.54,0,0,0,2.79-.8A5.4,5.4,0,0,0,188.58,30a9.64,9.64,0,0,0,.8-2.9A26.84,26.84,0,0,0,189.58,23.85Z"/><path class="cls-1" d="M207.67,34.4c-1.19,0-2.78.12-4,.12q-3,0-4.25-1.35a6.11,6.11,0,0,1-1.24-4.23V17.56a6.37,6.37,0,0,0,0-.84.59.59,0,0,0-.26-.44,1.67,1.67,0,0,0-.73-.16l-1.44,0q-.13,0-.22-.26a2.32,2.32,0,0,1-.11-.58,1.47,1.47,0,0,1,.07-.57c.06-.18.15-.27.26-.27a9,9,0,0,0,1.91-.33,3.33,3.33,0,0,0,1.35-.78,3.76,3.76,0,0,0,.88-1.44,12.51,12.51,0,0,0,.55-2.37.53.53,0,0,1,.36-.4,1.67,1.67,0,0,1,.67-.13,1.78,1.78,0,0,1,.64.11c.19.07.29.17.29.29v3.81a2.57,2.57,0,0,0,.07.82c0,.07.23.11.55.11h4.61a.4.4,0,0,1,.4.36,2.58,2.58,0,0,1,.09.62,2.4,2.4,0,0,1-.11.64.46.46,0,0,1-.47.38h-4.74c-.21,0-.33.05-.36.16a7.49,7.49,0,0,0,0,1.13v9.88a14.13,14.13,0,0,0,.47,4.41,1.92,1.92,0,0,0,1.94,1.2,21.7,21.7,0,0,0,3.31-.12h0l.27,1.43Z"/><path class="cls-1" d="M214.11,16.54q.09.22.22,0a8,8,0,0,1,2.86-2.35,7.62,7.62,0,0,1,3.39-.84q3.76,0,5.43,2.06a8.31,8.31,0,0,1,1.66,5.38V29q0,1.15.07,1.86A2.75,2.75,0,0,0,228,32a1.43,1.43,0,0,0,.78.62,9.5,9.5,0,0,0,1.46.38.54.54,0,0,1,.4.26.86.86,0,0,1,.13.44.74.74,0,0,1-.13.42.41.41,0,0,1-.36.2,17.17,17.17,0,0,1-1.88-.16,21.37,21.37,0,0,0-2.59-.16,25,25,0,0,0-2.79.16,21.59,21.59,0,0,1-2.35.16.45.45,0,0,1-.4-.2.74.74,0,0,1-.13-.42.82.82,0,0,1,.13-.47.6.6,0,0,1,.44-.24,6.84,6.84,0,0,0,1.57-.36,1.51,1.51,0,0,0,.8-.67,3,3,0,0,0,.31-1.15c0-.47.07-1.08.07-1.82V22.3a16.06,16.06,0,0,0-.16-2.22,7.14,7.14,0,0,0-.58-2,3.75,3.75,0,0,0-1.22-1.49,3.57,3.57,0,0,0-2.13-.57,5.07,5.07,0,0,0-2.42.53,5.56,5.56,0,0,0-1.64,1.29,5.24,5.24,0,0,0-1,1.59,4.37,4.37,0,0,0-.31,1.46v7.84c0,.8,0,1.45,0,2a3.16,3.16,0,0,0,.26,1.22,1.54,1.54,0,0,0,.69.69,4.41,4.41,0,0,0,1.31.38.57.57,0,0,1,.44.26.86.86,0,0,1,.13.44.74.74,0,0,1-.13.42.45.45,0,0,1-.4.2,16,16,0,0,1-1.79-.16,20.31,20.31,0,0,0-2.55-.16"/><path class="cls-1" d="M235.72,22.78c-.15,0-.23.05-.24.16a2.5,2.5,0,0,0,0,.38,12.9,12.9,0,0,0,.51,3.9,6.88,6.88,0,0,0,1.42,2.59,5.23,5.23,0,0,0,2.17,1.44,8.16,8.16,0,0,0,2.72.44,17.25,17.25,0,0,0,2.92-.24,5.11,5.11,0,0,0,2.44-1.09.56.56,0,0,1,.47-.13.67.67,0,0,1,.4.22.86.86,0,0,1,.2.4.48.48,0,0,1-.09.4,7.61,7.61,0,0,1-3.19,2.57,13.74,13.74,0,0,1-9-.09,8.47,8.47,0,0,1-3.19-2.24,9.14,9.14,0,0,1-1.86-3.37,14,14,0,0,1-.6-4.19,11.65,11.65,0,0,1,.73-4.12,9.88,9.88,0,0,1,5.21-5.63,9.48,9.48,0,0,1,4-.84,8.66,8.66,0,0,1,3.39.64,7.47,7.47,0,0,1,2.59,1.77,8.1,8.1,0,0,1,1.66,2.7,9.46,9.46,0,0,1,.6,3.39q0,.93-.67.93Zm8.11-1.55q.62,0,.71-.44a5.44,5.44,0,0,0,.09-1.06,5.66,5.66,0,0,0-.29-1.79,4.93,4.93,0,0,0-.82-1.53,4.05,4.05,0,0,0-1.29-1.06,3.64,3.64,0,0,0-1.73-.4,4.66,4.66,0,0,0-2.06.42A4.57,4.57,0,0,0,237,16.47a4.7,4.7,0,0,0-.91,1.62,10.5,10.5,0,0,0-.44,1.95,3.81,3.81,0,0,0-.07.87c0,.22.08.33.2.33Z"/><path class="cls-1" d="M265,14a11.43,11.43,0,0,0-.24,1.2,9.73,9.73,0,0,0-.11,1.5c0,.56,0,1.14,0,1.75s0,1.07,0,1.4c0,.09-.06.16-.18.22a1.13,1.13,0,0,1-.4.11.87.87,0,0,1-.4,0,.34.34,0,0,1-.22-.2,7.81,7.81,0,0,0-1.59-3.61,4.49,4.49,0,0,0-3.55-1.26,4.3,4.3,0,0,0-2.7.82,2.63,2.63,0,0,0-1.06,2.19,2,2,0,0,0,.88,1.77A10.21,10.21,0,0,0,257.83,21l1.48.55,1.4.55q1.15.53,2.15,1.11a7.54,7.54,0,0,1,1.73,1.35,6,6,0,0,1,1.15,1.75,5.66,5.66,0,0,1,.42,2.26,5.2,5.2,0,0,1-.71,2.81,5.64,5.64,0,0,1-1.82,1.82,8,8,0,0,1-2.53,1,13.1,13.1,0,0,1-2.79.31,14,14,0,0,1-2.57-.27,10.67,10.67,0,0,1-2.48-.75.63.63,0,0,0-.55.09.92.92,0,0,0-.38.66c0,.09-.07.15-.2.18a2,2,0,0,1-.42,0,1,1,0,0,1-.36-.07c-.12,0-.18-.11-.18-.2a7.27,7.27,0,0,1,.09-1,8.1,8.1,0,0,0,.09-1.15,11.75,11.75,0,0,0-.06-1.17l-.13-1.26c0-.41-.08-.78-.11-1.11s0-.56,0-.71a.28.28,0,0,1,.18-.27,1.15,1.15,0,0,1,.4-.11,1,1,0,0,1,.42,0,.34.34,0,0,1,.24.25A10.56,10.56,0,0,0,253,30a5.5,5.5,0,0,0,1.22,1.64,4.74,4.74,0,0,0,1.77,1,8.28,8.28,0,0,0,2.5.33,3.75,3.75,0,0,0,2.59-.89,3.14,3.14,0,0,0,1-2.48,2.74,2.74,0,0,0-1-2.24,10.89,10.89,0,0,0-2.33-1.44l-1.26-.53-1.31-.53q-1-.4-1.93-.82a6.83,6.83,0,0,1-1.68-1,4.57,4.57,0,0,1-1.17-1.55,5.33,5.33,0,0,1-.44-2.3,5,5,0,0,1,.69-2.7,5.56,5.56,0,0,1,1.77-1.8,7.84,7.84,0,0,1,2.41-1,11.55,11.55,0,0,1,2.61-.31,7.63,7.63,0,0,1,2.19.29,8.39,8.39,0,0,1,2.1,1,.57.57,0,0,0,.47,0c.19-.07.35-.32.47-.73a.3.3,0,0,1,.27-.22,1.51,1.51,0,0,1,.44,0,1.17,1.17,0,0,1,.4.11C264.95,13.85,265,13.93,265,14Z"/><path class="cls-1" d="M203.68,34.52h2.25c1.37,0,4.43-.53,5.95-.53s-8-.22-8-.22Z"/></g></g></svg>