<svg xmlns="http://www.w3.org/2000/svg" viewBox="0 0 233.06 111.05">
    <path d="M23.27 13.15c0-1.13 0-2.23-.12-3.31a15.13 15.13 0 0 0-.5-3 6.54 6.54 0 0 0-1.19-2.38 4.16 4.16 0 0 0-2.19-1.39q-.84-.23-1.77-.38c-.61-.1-1.2-.18-1.77-.23a.75.75 0 0 1-.73-.38 1.62 1.62 0 0 1-.23-.85A1.62 1.62 0 0 1 15 .38a.75.75 0 0 1 .74-.38q2.61 0 4.69.15t4.84.16q3.15 0 6.23-.12T37.73 0a33 33 0 0 1 11.65 2 27.47 27.47 0 0 1 9.19 5.58 25.71 25.71 0 0 1 6 8.54 26.44 26.44 0 0 1 2.23 10.8 28 28 0 0 1-2.07 11.23 22.37 22.37 0 0 1-5.69 8 23.11 23.11 0 0 1-8.57 4.73 36 36 0 0 1-10.73 1.54q-3.46 0-6.73-.31t-5.88-.31h-2.92q-1.31 0-2.54.12-1.23.08-2.5.23l-2.81.31a.69.69 0 0 1-.73-.31 2 2 0 0 1-.35-.85 1.35 1.35 0 0 1 .19-.92 1.12 1.12 0 0 1 .88-.54 17.37 17.37 0 0 0 3.15-.65A5.78 5.78 0 0 0 21.66 48a4.43 4.43 0 0 0 1.23-2 11.11 11.11 0 0 0 .38-3.23zm8.38 24.3a42.38 42.38 0 0 0 .35 6.12A6.68 6.68 0 0 0 33.35 47a4.8 4.8 0 0 0 2.88 1.5 29 29 0 0 0 5 .35 13.86 13.86 0 0 0 6.35-1.46 14 14 0 0 0 5-4.27 21.18 21.18 0 0 0 3.23-6.88 34.5 34.5 0 0 0 1.19-9.4 38.88 38.88 0 0 0-1.15-10A17.71 17.71 0 0 0 52 9.58a16 16 0 0 0-7-4.46 32.87 32.87 0 0 0-10.65-1.5 3.31 3.31 0 0 0-2.15.54 2.7 2.7 0 0 0-.62 2.08zM79.48 32.3c-.26 0-.4.09-.42.27a4.34 4.34 0 0 0 0 .65A22.41 22.41 0 0 0 79.9 40a11.94 11.94 0 0 0 2.46 4.5 9.08 9.08 0 0 0 3.77 2.5 14.16 14.16 0 0 0 4.73.77 30 30 0 0 0 5.08-.42 8.88 8.88 0 0 0 4.23-1.88 1 1 0 0 1 .81-.23 1.16 1.16 0 0 1 .69.38 1.5 1.5 0 0 1 .35.69.83.83 0 0 1-.16.69 13.22 13.22 0 0 1-5.54 4.46 20.68 20.68 0 0 1-7.61 1.23 20.76 20.76 0 0 1-8-1.39 14.71 14.71 0 0 1-5.54-3.88A15.87 15.87 0 0 1 72 41.57a24.34 24.34 0 0 1-1-7.27 20.22 20.22 0 0 1 1.27-7.15 17.15 17.15 0 0 1 9-9.77 16.46 16.46 0 0 1 7-1.46A15 15 0 0 1 94.13 17a13 13 0 0 1 4.5 3.08 14.06 14.06 0 0 1 2.89 4.69 16.43 16.43 0 0 1 1 5.88q0 1.61-1.15 1.61zm14.07-2.69q1.07 0 1.23-.77a9.45 9.45 0 0 0 .16-1.84 9.83 9.83 0 0 0-.5-3.11A8.55 8.55 0 0 0 93 21.23a7 7 0 0 0-2.23-1.85 6.32 6.32 0 0 0-3-.69 8.09 8.09 0 0 0-3.58.73 7.94 7.94 0 0 0-2.54 1.92 8.17 8.17 0 0 0-1.58 2.81 18.23 18.23 0 0 0-.77 3.38 6.61 6.61 0 0 0-.12 1.5c0 .38.14.58.34.58zM114.43 33.07a21.94 21.94 0 0 0 .69 5.58 14.43 14.43 0 0 0 2.12 4.69 10.32 10.32 0 0 0 3.65 3.23 11.27 11.27 0 0 0 5.38 1.19 32.51 32.51 0 0 0 5.27-.42 8.57 8.57 0 0 0 4.34-2 .66.66 0 0 1 .69-.19 1.86 1.86 0 0 1 .69.38 1.43 1.43 0 0 1 .42.65.75.75 0 0 1-.12.69 12.71 12.71 0 0 1-5.92 4.58 24.11 24.11 0 0 1-8 1.19 21.36 21.36 0 0 1-6.15-.92 15.1 15.1 0 0 1-5.58-3.08 15.43 15.43 0 0 1-4-5.73 22.51 22.51 0 0 1-1.54-8.88 19.85 19.85 0 0 1 1.26-7.03 16.11 16.11 0 0 1 3.69-5.77 17.57 17.57 0 0 1 6-3.85 21.72 21.72 0 0 1 8.15-1.42 17.67 17.67 0 0 1 4.35.54 13.21 13.21 0 0 1 3.72 1.5 8.5 8.5 0 0 1 2.65 2.58 6.23 6.23 0 0 1 1 3.46 4.28 4.28 0 0 1-.92 2.62 3.41 3.41 0 0 1-2.92 1.23 4.07 4.07 0 0 1-2.65-.84 3 3 0 0 1-1-2.46 2.67 2.67 0 0 1 .58-1.77 2.08 2.08 0 0 0 .58-1.31q0-1.38-1.84-2.11a11 11 0 0 0-4.08-.73 9 9 0 0 0-4.94 1.25 10.17 10.17 0 0 0-3.23 3.27A14.09 14.09 0 0 0 115 27.8a25.67 25.67 0 0 0-.57 5.27zM147 32.3c-.26 0-.4.09-.42.27a4.34 4.34 0 0 0 0 .65 22.41 22.41 0 0 0 .89 6.77 11.94 11.94 0 0 0 2.46 4.5 9.08 9.08 0 0 0 3.77 2.5 14.16 14.16 0 0 0 4.73.77 30 30 0 0 0 5.08-.42 8.88 8.88 0 0 0 4.23-1.88 1 1 0 0 1 .81-.23 1.16 1.16 0 0 1 .69.38 1.5 1.5 0 0 1 .35.69.83.83 0 0 1-.16.69 13.22 13.22 0 0 1-5.54 4.46 23.85 23.85 0 0 1-15.57-.16 14.71 14.71 0 0 1-5.54-3.88 15.87 15.87 0 0 1-3.23-5.84 24.34 24.34 0 0 1-1-7.27 20.22 20.22 0 0 1 1.27-7.15 17.15 17.15 0 0 1 9-9.77 16.46 16.46 0 0 1 7-1.46 15 15 0 0 1 5.86 1.08 13 13 0 0 1 4.5 3.08 14.06 14.06 0 0 1 2.89 4.69 16.43 16.43 0 0 1 1 5.88q0 1.61-1.15 1.61zm14.07-2.69q1.07 0 1.23-.77a9.45 9.45 0 0 0 .16-1.85 9.83 9.83 0 0 0-.5-3.11 8.55 8.55 0 0 0-1.42-2.65 7 7 0 0 0-2.23-1.85 6.32 6.32 0 0 0-3-.69 8.09 8.09 0 0 0-3.58.73 7.94 7.94 0 0 0-2.54 1.92 8.17 8.17 0 0 0-1.58 2.81 18.23 18.23 0 0 0-.77 3.38 6.61 6.61 0 0 0-.12 1.5c0 .38.14.58.34.58zM183.4 42.61c0 1.28 0 2.36.08 3.23a6.76 6.76 0 0 0 .42 2.16 2.61 2.61 0 0 0 1.15 1.3 6.78 6.78 0 0 0 2.27.69 1 1 0 0 1 .69.42 1.42 1.42 0 0 1 .23.81 1.29 1.29 0 0 1-.23.73.78.78 0 0 1-.69.35 28.08 28.08 0 0 1-2.89-.27 35.22 35.22 0 0 0-4.42-.27 41.42 41.42 0 0 0-4.77.27 37.51 37.51 0 0 1-4.31.27.7.7 0 0 1-.61-.35 1.27 1.27 0 0 1-.23-.73 1.4 1.4 0 0 1 .23-.81A1 1 0 0 1 171 50a13.76 13.76 0 0 0 3-.62 3 3 0 0 0 1.54-1.15 4.08 4.08 0 0 0 .58-2q.08-1.23.08-3.15v-9.7q0-3.76-.08-6.27a15.29 15.29 0 0 0-.54-4 3.43 3.43 0 0 0-1.46-2 5.75 5.75 0 0 0-2.85-.58.92.92 0 0 1-.73-.31 1 1 0 0 1-.27-.69 1.11 1.11 0 0 1 .27-.77.91.91 0 0 1 .73-.31 28.71 28.71 0 0 0 4.27-.46 48.86 48.86 0 0 0 5.73-1.31 1.36 1.36 0 0 1 1.61.42 2.72 2.72 0 0 1 .54 1.66v3.08a.18.18 0 0 0 .12.19c.08 0 .14 0 .19-.12a13.78 13.78 0 0 1 6.84-5.38 11 11 0 0 1 3.77-.62q5.77 0 9 3.19t3.27 10.35v13.16c0 1.39 0 2.51.12 3.39a5.68 5.68 0 0 0 .54 2.11 2.77 2.77 0 0 0 1.31 1.23 9 9 0 0 0 2.5.65 1 1 0 0 1 .69.42 1.42 1.42 0 0 1 .23.81 1.29 1.29 0 0 1-.23.73.78.78 0 0 1-.69.35 31.84 31.84 0 0 1-3.27-.27 39 39 0 0 0-4.58-.27 39.4 39.4 0 0 0-4.69.27 32.16 32.16 0 0 1-3.69.27.7.7 0 0 1-.61-.35 1.29 1.29 0 0 1-.23-.73 1.42 1.42 0 0 1 .23-.81 1 1 0 0 1 .69-.42 8.14 8.14 0 0 0 2.58-.69 3 3 0 0 0 1.31-1.3 5 5 0 0 0 .5-2q.08-1.19.08-3V31.38q0-1.92-.15-3.85a10.47 10.47 0 0 0-.84-3.46 6.56 6.56 0 0 0-2-2.54 5.85 5.85 0 0 0-3.61-1 10.37 10.37 0 0 0-4 .73 8.75 8.75 0 0 0-2.92 2 8.17 8.17 0 0 0-1.88 2.85 10 10 0 0 0-.62 3.5zM220.12 40.07a16 16 0 0 0 1 6.38 3.52 3.52 0 0 0 3.5 2.08 10.34 10.34 0 0 0 3.35-.54 9.32 9.32 0 0 0 2.42-1.15.56.56 0 0 1 .54 0 1.26 1.26 0 0 1 .54.38 1.9 1.9 0 0 1 .35.58.57.57 0 0 1 0 .54 8.18 8.18 0 0 1-3.81 3.38 13.94 13.94 0 0 1-5.5 1q-5.23 0-7.38-2.35T212.9 43V23.23a11.06 11.06 0 0 0-.08-1.46 1 1 0 0 0-.46-.77 2.9 2.9 0 0 0-1.27-.27h-2.5q-.23 0-.38-.46a4 4 0 0 1-.19-1 2.55 2.55 0 0 1 .12-1c.1-.31.26-.46.46-.46a15.59 15.59 0 0 0 3.31-.58 5.78 5.78 0 0 0 2.35-1.35 6.53 6.53 0 0 0 1.54-2.5 21.73 21.73 0 0 0 1-4.12.92.92 0 0 1 .62-.69 2.89 2.89 0 0 1 1.15-.23 3.08 3.08 0 0 1 1.11.19c.33.13.5.29.5.5v6.61a4.46 4.46 0 0 0 .12 1.42c.08.13.39.19 1 .19h8a.69.69 0 0 1 .69.62 4.48 4.48 0 0 1 .15 1.08 4.17 4.17 0 0 1-.19 1.11.79.79 0 0 1-.81.65h-8.23c-.36 0-.57.09-.62.27a13 13 0 0 0-.08 2zM27.46 56.9a22.89 22.89 0 0 1 6.38.85A36.42 36.42 0 0 1 39.61 60l1.57.73a3.05 3.05 0 0 0 1.27.35q1.23 0 1.61-1.46a.7.7 0 0 1 .5-.46 1.93 1.93 0 0 1 .84-.12 2.09 2.09 0 0 1 .73.19.37.37 0 0 1 .23.46 16.78 16.78 0 0 0-.36 2.52c-.08.87-.12 1.77-.12 2.69a30.24 30.24 0 0 0 .31 4.31q.31 2.15.61 4.46a.57.57 0 0 1-.34.5 2 2 0 0 1-.85.23 2.36 2.36 0 0 1-1-.11.72.72 0 0 1-.54-.54q-1.92-6.92-6.23-10.19A17.42 17.42 0 0 0 27 60.29a15.08 15.08 0 0 0-8.38 2.15A16.16 16.16 0 0 0 13.34 68a23.77 23.77 0 0 0-2.73 7.54 43.67 43.67 0 0 0-.77 8 40.94 40.94 0 0 0 .92 8.61 25.22 25.22 0 0 0 3 7.77 17.34 17.34 0 0 0 5.42 5.65 14.47 14.47 0 0 0 8.11 2.19 30.47 30.47 0 0 0 6.61-.65 10.83 10.83 0 0 0 4.92-2.42 16.71 16.71 0 0 0 3.92-5.34 26 26 0 0 0 2.08-7 .78.78 0 0 1 .5-.69 1.48 1.48 0 0 1 .88 0 2.21 2.21 0 0 1 .85.43c.25.2.36.41.31.61q-.23 1.54-.31 3t-.08 3q0 2.61.19 5.34t.35 5.73a.81.81 0 0 1-.31.69 1.44 1.44 0 0 1-.73.27 1.51 1.51 0 0 1-.81-.15.8.8 0 0 1-.46-.58 4.77 4.77 0 0 0-.54-1.35 3.4 3.4 0 0 0-1-1.08 2.52 2.52 0 0 0-1.46-.42 3.86 3.86 0 0 0-1.77.54 34.24 34.24 0 0 1-3.27 1.58 21.21 21.21 0 0 1-3.19 1 23.4 23.4 0 0 1-3.39.54q-1.77.15-3.85.15-13.61 0-20.19-6.81T0 84.75a32 32 0 0 1 2.08-12 24.71 24.71 0 0 1 5.73-8.73 23.91 23.91 0 0 1 8.69-5.34 32.21 32.21 0 0 1 10.96-1.78zM58.88 71.06c0-2.2-.05-6.2-.15-7.51a7.39 7.39 0 0 0-.77-3A3.12 3.12 0 0 0 56.07 59a19.5 19.5 0 0 0-3.5-.61A.62.62 0 0 1 52 58a2.19 2.19 0 0 1-.23-.77 1.37 1.37 0 0 1 .15-.77.67.67 0 0 1 .65-.38 23.08 23.08 0 0 0 6.5-1.63c2.17-1 3.25-2.18 5-3.29a1.44 1.44 0 0 1 1.56 0 1.36 1.36 0 0 1 .42.89v48.77q0 1.92.08 3.23a4.72 4.72 0 0 0 .58 2.16 3.2 3.2 0 0 0 1.61 1.3 12 12 0 0 0 3.11.69 1 1 0 0 1 .69.42 1.42 1.42 0 0 1 .23.81 1.29 1.29 0 0 1-.23.73.78.78 0 0 1-.69.35 36.45 36.45 0 0 1-4.15-.27 40 40 0 0 0-4.61-.27 43.43 43.43 0 0 0-4.85.27 43.41 43.41 0 0 1-4.84.27.7.7 0 0 1-.61-.35 1.27 1.27 0 0 1-.23-.73 1.4 1.4 0 0 1 .23-.81 1 1 0 0 1 .69-.42 13.72 13.72 0 0 0 3.35-.69 3.52 3.52 0 0 0 1.73-1.27 4 4 0 0 0 .61-2q.08-1.19.08-3zM135.62 71.06c0-2.2-.05-6.2-.15-7.51a7.39 7.39 0 0 0-.77-3 3.12 3.12 0 0 0-1.89-1.55 19.5 19.5 0 0 0-3.5-.61.62.62 0 0 1-.58-.38 2.19 2.19 0 0 1-.23-.77 1.37 1.37 0 0 1 .15-.77.67.67 0 0 1 .65-.38 23.08 23.08 0 0 0 6.5-1.63c2.17-1 3.25-2.18 5-3.29a1.44 1.44 0 0 1 1.56 0 1.36 1.36 0 0 1 .42.89v48.77q0 1.92.08 3.23a4.72 4.72 0 0 0 .58 2.16 3.2 3.2 0 0 0 1.61 1.3 12 12 0 0 0 3.11.69 1 1 0 0 1 .69.42 1.42 1.42 0 0 1 .23.81 1.29 1.29 0 0 1-.23.73.78.78 0 0 1-.69.35 36.45 36.45 0 0 1-4.15-.27 40 40 0 0 0-4.61-.27 43.43 43.43 0 0 0-4.85.27 40.59 40.59 0 0 1-4.84.27.7.7 0 0 1-.61-.35 1.27 1.27 0 0 1-.23-.73 1.4 1.4 0 0 1 .23-.81 1 1 0 0 1 .69-.42 13.72 13.72 0 0 0 3.35-.69 3.28 3.28 0 0 0 2-2.19 38.21 38.21 0 0 0 .42-6zM108.18 91.51a24.39 24.39 0 0 1-1.31 8.31 16.55 16.55 0 0 1-3.73 6.07 15.79 15.79 0 0 1-5.81 3.73 21.27 21.27 0 0 1-7.54 1.27 18.35 18.35 0 0 1-6.69-1.19 14.39 14.39 0 0 1-5.31-3.54 16.81 16.81 0 0 1-3.54-5.92A24.49 24.49 0 0 1 73 91.82a19.17 19.17 0 0 1 1.31-7.19 16.08 16.08 0 0 1 3.65-5.58 16.78 16.78 0 0 1 5.65-3.61 19.54 19.54 0 0 1 7.23-1.31 20.32 20.32 0 0 1 7 1.15 15.59 15.59 0 0 1 5.5 3.35 15.3 15.3 0 0 1 3.61 5.42 19.81 19.81 0 0 1 1.23 7.46zm-8.08.84a41.3 41.3 0 0 0-.38-5.69 17.3 17.3 0 0 0-1.38-4.92 8.83 8.83 0 0 0-2.77-3.46A7.43 7.43 0 0 0 91 77a8.7 8.7 0 0 0-5 1.31 9.13 9.13 0 0 0-3 3.5 16.16 16.16 0 0 0-1.54 5 37.8 37.8 0 0 0-.46 5.7 39 39 0 0 0 .38 5.38 16.76 16.76 0 0 0 1.46 5 10.24 10.24 0 0 0 3 3.69 7.62 7.62 0 0 0 4.81 1.42 7.88 7.88 0 0 0 4.85-1.38 9.37 9.37 0 0 0 2.88-3.62 16.74 16.74 0 0 0 1.39-5 46.6 46.6 0 0 0 .34-5.64z"/>
    <path d="M131.52 110.68c-2.06 0-4.82.21-6.93.21q-5.23 0-7.38-2.35t-2.15-7.34V81.44A11.06 11.06 0 0 0 115 80a1 1 0 0 0-.46-.77 2.9 2.9 0 0 0-1.27-.27h-2.5q-.23 0-.38-.46a4 4 0 0 1-.19-1 2.55 2.55 0 0 1 .12-1c.1-.31.26-.46.46-.46a15.59 15.59 0 0 0 3.31-.58 5.78 5.78 0 0 0 2.35-1.35 6.53 6.53 0 0 0 1.54-2.5 21.73 21.73 0 0 0 1-4.12.92.92 0 0 1 .62-.69 2.89 2.89 0 0 1 1.15-.23 3.08 3.08 0 0 1 1.11.19c.33.13.5.29.5.5v6.61a4.46 4.46 0 0 0 .12 1.42c.08.13.39.19 1 .19h8a.69.69 0 0 1 .69.62 4.48 4.48 0 0 1 .15 1.08 4.17 4.17 0 0 1-.19 1.11.79.79 0 0 1-.81.65H123c-.36 0-.57.09-.62.27a13 13 0 0 0-.08 2v17.07c0 2.87.17 6.27.81 7.65a3.34 3.34 0 0 0 3.37 2.08 37.67 37.67 0 0 0 5.74-.2l.47 2.48zM142.69 79.67q.15.38.38 0a14 14 0 0 1 5-4.08 13.23 13.23 0 0 1 5.89-1.46q6.53 0 9.42 3.58a14.43 14.43 0 0 1 2.89 9.34v14.23q0 2 .12 3.23a4.77 4.77 0 0 0 .54 2 2.48 2.48 0 0 0 1.35 1.08 16.49 16.49 0 0 0 2.54.65.94.94 0 0 1 .69.46 1.49 1.49 0 0 1 .23.77 1.29 1.29 0 0 1-.23.73.71.71 0 0 1-.62.35 29.82 29.82 0 0 1-3.27-.27 37.1 37.1 0 0 0-4.5-.27 43.37 43.37 0 0 0-4.84.27 37.48 37.48 0 0 1-4.08.27.78.78 0 0 1-.69-.35 1.29 1.29 0 0 1-.23-.73 1.42 1.42 0 0 1 .23-.81 1 1 0 0 1 .77-.42 11.88 11.88 0 0 0 2.73-.62 2.62 2.62 0 0 0 1.39-1.15 5.16 5.16 0 0 0 .54-2c.08-.82.12-1.87.12-3.15V89.67a27.88 27.88 0 0 0-.27-3.85 12.4 12.4 0 0 0-1-3.5 6.52 6.52 0 0 0-2.12-2.58 6.19 6.19 0 0 0-3.69-1 8.79 8.79 0 0 0-4.19.92 9.65 9.65 0 0 0-2.84 2.23 9.1 9.1 0 0 0-1.66 2.77 7.59 7.59 0 0 0-.54 2.54v13.61c0 1.39 0 2.53.08 3.42a5.49 5.49 0 0 0 .46 2.12 2.68 2.68 0 0 0 1.19 1.19 7.65 7.65 0 0 0 2.27.65 1 1 0 0 1 .77.46 1.49 1.49 0 0 1 .23.77 1.29 1.29 0 0 1-.23.73.78.78 0 0 1-.69.35 27.68 27.68 0 0 1-3.11-.27 35.26 35.26 0 0 0-4.42-.27M180.23 90.51c-.26 0-.4.09-.42.27a4.34 4.34 0 0 0 0 .65 22.41 22.41 0 0 0 .89 6.77 11.94 11.94 0 0 0 2.46 4.5 9.08 9.08 0 0 0 3.77 2.5 14.16 14.16 0 0 0 4.73.77 30 30 0 0 0 5.08-.42 8.88 8.88 0 0 0 4.23-1.88 1 1 0 0 1 .81-.23 1.16 1.16 0 0 1 .69.38 1.5 1.5 0 0 1 .35.69.83.83 0 0 1-.16.69 13.22 13.22 0 0 1-5.54 4.46 23.85 23.85 0 0 1-15.57-.16 14.71 14.71 0 0 1-5.54-3.88 15.87 15.87 0 0 1-3.23-5.84 24.34 24.34 0 0 1-1-7.27 20.22 20.22 0 0 1 1.22-7.15 17.15 17.15 0 0 1 9-9.77 16.46 16.46 0 0 1 7-1.46 15 15 0 0 1 5.89 1.12 13 13 0 0 1 4.5 3.08 14.06 14.06 0 0 1 2.87 4.67 16.43 16.43 0 0 1 1 5.88q0 1.61-1.15 1.61zm14.07-2.69q1.07 0 1.23-.77a9.45 9.45 0 0 0 .16-1.85 9.83 9.83 0 0 0-.5-3.11 8.55 8.55 0 0 0-1.42-2.65 7 7 0 0 0-2.23-1.85 6.32 6.32 0 0 0-3-.69 8.09 8.09 0 0 0-3.58.73 7.94 7.94 0 0 0-2.54 1.92 8.17 8.17 0 0 0-1.58 2.81 18.23 18.23 0 0 0-.77 3.38 6.61 6.61 0 0 0-.12 1.5c0 .38.14.58.34.58zM231 75.29a19.84 19.84 0 0 0-.42 2.08 16.9 16.9 0 0 0-.19 2.61c0 1 0 2 .08 3s.08 1.86.08 2.42c0 .15-.1.28-.31.38a2 2 0 0 1-.69.19 1.51 1.51 0 0 1-.69-.08.59.59 0 0 1-.38-.35 13.56 13.56 0 0 0-2.77-6.27q-1.92-2.19-6.16-2.19a7.47 7.47 0 0 0-4.69 1.42 4.56 4.56 0 0 0-1.86 3.86 3.52 3.52 0 0 0 1.54 3.08 17.73 17.73 0 0 0 4.08 2q1.07.38 2.58 1c1 .38 1.81.71 2.42 1q2 .92 3.73 1.92a13.08 13.08 0 0 1 3 2.34 10.43 10.43 0 0 1 2 3 9.82 9.82 0 0 1 .73 3.92 9 9 0 0 1-1.23 4.88 9.8 9.8 0 0 1-3.15 3.15 13.92 13.92 0 0 1-4.38 1.73 22.75 22.75 0 0 1-4.84.54 24.27 24.27 0 0 1-4.46-.46 18.53 18.53 0 0 1-4.31-1.3 1.1 1.1 0 0 0-1 .15 1.6 1.6 0 0 0-.65 1.15c0 .15-.12.26-.34.31a3.46 3.46 0 0 1-.73.08 1.72 1.72 0 0 1-.62-.12c-.2-.08-.31-.19-.31-.34a12.62 12.62 0 0 1 .15-1.69 14.06 14.06 0 0 0 .15-2 20.4 20.4 0 0 0-.11-2l-.23-2.19a87.67 87.67 0 0 1-.27-3.15.49.49 0 0 1 .31-.46 2 2 0 0 1 .69-.19 1.79 1.79 0 0 1 .73.08.59.59 0 0 1 .42.43 18.34 18.34 0 0 0 1.4 3.78 9.54 9.54 0 0 0 2.12 2.84 8.23 8.23 0 0 0 3.08 1.73 14.38 14.38 0 0 0 4.35.58 6.5 6.5 0 0 0 4.5-1.54 5.45 5.45 0 0 0 1.73-4.31 4.76 4.76 0 0 0-1.73-3.88 18.91 18.91 0 0 0-4-2.5l-2.19-.92-2.27-.92q-1.69-.69-3.35-1.42a11.86 11.86 0 0 1-2.92-1.81 7.93 7.93 0 0 1-2-2.69 9.26 9.26 0 0 1-.77-4 8.73 8.73 0 0 1 1.15-4.64 9.66 9.66 0 0 1 3-3.12 13.61 13.61 0 0 1 4.19-1.73 20.06 20.06 0 0 1 4.54-.54 13.25 13.25 0 0 1 3.81.5 14.56 14.56 0 0 1 3.65 1.81 1 1 0 0 0 .81 0c.33-.13.6-.55.81-1.27a.53.53 0 0 1 .46-.38 2.63 2.63 0 0 1 .77 0 2 2 0 0 1 .69.19c.27.02.27.15.27.31z"/>
</svg>
